<svg width="20" height="20" viewBox="0 0 20 20" fill="none" xmlns="http://www.w3.org/2000/svg"><g opacity="0.5"><path fill-rule="evenodd" clip-rule="evenodd" d="M15.0001 10.8334H10.8334V15C10.8334 15.4584 10.4584 15.8334 10.0001 15.8334C9.54175 15.8334 9.16675 15.4584 9.16675 15V10.8334H5.00008C4.54175 10.8334 4.16675 10.4584 4.16675 10C4.16675 9.54169 4.54175 9.16669 5.00008 9.16669H9.16675V5.00002C9.16675 4.54169 9.54175 4.16669 10.0001 4.16669C10.4584 4.16669 10.8334 4.54169 10.8334 5.00002V9.16669H15.0001C15.4584 9.16669 15.8334 9.54169 15.8334 10C15.8334 10.4584 15.4584 10.8334 15.0001 10.8334Z" fill="#0D0D0D"/></g></svg>