<svg width="19" height="22" viewBox="0 0 19 22" fill="none" xmlns="http://www.w3.org/2000/svg"><path d="M18.8643 19.3627L17.2632 6.31257C17.2153 6.077 17.0276 5.88927 16.792 5.88927H13.3523V4.5697C13.3523 1.8367 11.845 0 9.58316 0C7.32131 0 5.81403 1.8367 5.81403 4.5697V5.88927H2.09276C1.85719 5.88927 1.66946 6.077 1.62162 6.31257L0.0204868 19.3627C-0.0733741 20.0216 0.162197 20.7283 0.58548 21.1994C1.00877 21.7184 1.66948 22 2.32833 22H16.5106C17.1695 22 17.8302 21.7166 18.2535 21.1994C18.7228 20.7301 18.9584 20.0234 18.8645 19.3627H18.8643ZM6.7564 4.61551C6.7564 2.91865 7.51099 0.988097 9.58326 0.988097C11.6555 0.988097 12.4101 2.92053 12.4101 4.61551V5.93509H6.7564V4.61551ZM17.5927 20.5882C17.3093 20.8716 16.9338 21.0593 16.5565 21.0593H2.32852C1.90522 21.0593 1.52795 20.8716 1.29238 20.5882C1.05681 20.3048 0.915101 19.8815 0.962951 19.4582L2.51626 6.87728H16.3669L17.922 19.5044C17.9699 19.8816 17.8282 20.3049 17.5926 20.5884L17.5927 20.5882Z" fill="black"/></svg>