<svg width="29" height="26" viewBox="0 0 29 26" fill="none" xmlns="http://www.w3.org/2000/svg"><path d="M7.34679 7.63991e-05C5.46473 7.63991e-05 3.58267 0.760055 2.14916 2.2651C-0.717873 5.27518 -0.714898 10.1121 2.14916 13.1254L14.2134 25.8213C14.2849 25.8988 14.3862 25.9435 14.4935 25.9435C14.5993 25.9435 14.7007 25.8988 14.7737 25.8213C18.8002 21.5938 22.8236 17.3647 26.8497 13.1372C29.7168 10.1271 29.7168 5.28716 26.8497 2.27692C23.9827 -0.733314 19.3216 -0.733161 16.4545 2.27692L14.4994 4.31546L12.5443 2.26502C11.1108 0.759979 9.22875 0 7.34669 0L7.34679 7.63991e-05ZM7.34679 0.751129C9.02319 0.751129 10.7041 1.43214 11.9962 2.78967L14.2255 5.13812C14.297 5.2156 14.3984 5.26031 14.5057 5.26031C14.6115 5.26031 14.7128 5.2156 14.7858 5.13812L17.0031 2.80157C19.5885 0.086519 23.7042 0.086519 26.2898 2.80157C28.8752 5.51662 28.8752 9.89781 26.2898 12.6128C22.3587 16.7404 18.4306 20.871 14.4999 24.999L2.70995 12.601C0.127542 9.88293 0.124566 5.50357 2.70995 2.78974C4.0019 1.43222 5.67087 0.751205 7.34719 0.751205L7.34679 0.751129Z" fill="black"/></svg>